<svg xmlns="http://www.w3.org/2000/svg" width="1000" height="1100" viewBox="0 0 1000 1100">
  <defs>
    <linearGradient id="grad-feature-latte-art" x1="0%" y1="0%" x2="100%" y2="0%">
      <stop offset="0%" stop-color="#3B2417"/>
      <stop offset="100%" stop-color="#1A1210"/>
    </linearGradient>
    <filter id="grain-feature-latte-art"><feTurbulence type="fractalNoise" baseFrequency="0.9" numOctaves="2" stitchTiles="stitch" result="n"/><feColorMatrix in="n" type="saturate" values="0"/></filter>
  </defs>
  <rect width="1000" height="1100" fill="url(#grad-feature-latte-art)"/>
  <rect width="1000" height="1100" filter="url(#grain-feature-latte-art)" opacity="0.05"/>
  <g transform="translate(500.0,550.0) scale(2.2)" opacity="0.9"><path d="M-60 10h130v55a65 65 0 0 1-65 65 65 65 0 0 1-65-65V10Z" fill="none" stroke="#F7F1E6" stroke-width="4"/><path d="M70 25h20a28 28 0 0 1 0 56H70" fill="none" stroke="#F7F1E6" stroke-width="4"/><path d="M-30 -10c0-10 10-10 10-22M0 -10c0-10 10-10 10-22M30 -10c0-10 10-10 10-22" fill="none" stroke="#F7F1E6" stroke-width="3.5" stroke-linecap="round"/></g>
  <text x="984" y="1084" text-anchor="end" font-family="Inter, sans-serif" font-size="12" fill="#F7F1E6" opacity="0.45">Platzhalterbild</text>
</svg>